<svg xmlns="http://www.w3.org/2000/svg" viewBox="0 0 222.55 239.55"><defs><style>.cls-1{stroke:#000;stroke-miterlimit:10;}</style></defs><title>Asset 1</title><g id="Layer_2" data-name="Layer 2"><g id="Layer_1-2" data-name="Layer 1"><path class="cls-1" d="M111.06,237.39c-7.59-2.74-17.4-10-20.92-17.65-3.43-7.4,0-16.45-4-23.74a12.28,12.28,0,0,0-10.84-6.3c-12.57.32-24.42,15.66-39.08,16.74-42,3.11-44.53-47.15-20.43-68.6C26.12,128.7,39,122.64,52,117.37c13.77-5.59,27.49-11.47,41.07-17.19s29.38-15.56,44.7-10.74c24,7.53,29.66,28,26.55,49.66-3.86,26.9-13.62,56.52-23.27,82.12C136.15,234.27,126.09,242.82,111.06,237.39Z"/><path d="M88.68,96.53c-10.7,0-22-10.68-26.76-25.38-5.68-17.41-.75-34.68,11-38.51a15.33,15.33,0,0,1,4.82-.76c10.71,0,22,10.67,26.76,25.38,5.68,17.4.76,34.68-11,38.51A15.58,15.58,0,0,1,88.68,96.53Z"/><path d="M77.72,32.38h0c10.5,0,21.55,10.53,26.29,25,5.59,17.14.81,34.14-10.66,37.88a15,15,0,0,1-4.67.74C78.19,96,67.13,85.5,62.4,71c-2.74-8.37-3.1-16.94-1-24.15S67.57,34.9,73.05,33.11a15,15,0,0,1,4.67-.73m0-1a16,16,0,0,0-5,.78c-12,3.92-17.07,21.45-11.29,39.14C66.44,86.61,77.9,97,88.68,97a16,16,0,0,0,5-.79c12-3.92,17.07-21.44,11.3-39.14C100,41.8,88.5,31.38,77.72,31.38Z"/><path d="M127,75.34a11.26,11.26,0,0,1-1.93-.17c-11.08-2-17.15-20.25-13.53-40.79C114.89,15.38,125.75.5,136.26.5a11.47,11.47,0,0,1,1.94.17c5.31.94,9.65,5.65,12.22,13.29s3.07,17.5,1.31,27.5C148.38,60.46,137.52,75.34,127,75.34Z"/><path d="M136.26,1h0a10.43,10.43,0,0,1,1.85.16c5.12.9,9.33,5.51,11.84,13,2.58,7.65,3,17.34,1.28,27.25-3.3,18.77-13.95,33.47-24.23,33.47a11.46,11.46,0,0,1-1.85-.16c-10.81-1.91-16.69-20-13.12-40.22C115.34,15.7,126,1,136.26,1m0-1C125.5,0,114.5,14.68,111.05,34.29c-3.68,20.84,2.56,39.37,13.93,41.37a11.49,11.49,0,0,0,2,.18c10.76,0,21.76-14.68,25.22-34.29C155.89,20.7,149.66,2.18,138.29.18a11.6,11.6,0,0,0-2-.18Z"/><path d="M165,88a11.66,11.66,0,0,1-6.93-2.06c-4.13-2.94-5.91-8.7-5-16.22s4.47-16.13,10-23.92c8.49-11.92,20.29-19.93,29.36-19.93a11.62,11.62,0,0,1,6.93,2.06C208,34,205.74,52,194.35,68,185.87,79.94,174.07,88,165,88Z"/><path d="M192.44,26.32h0a11.21,11.21,0,0,1,6.64,2c4,2.83,5.68,8.43,4.8,15.77C203,51.6,199.45,60,194,67.73c-8.4,11.8-20,19.72-29,19.72a11.21,11.21,0,0,1-6.64-2c-8.4-6-6.09-23.68,5.14-39.45,8.4-11.8,20-19.72,28.95-19.72m0-1c-9,0-20.87,7.65-29.77,20.14C151.1,61.7,148.91,80,157.77,86.3A12.21,12.21,0,0,0,165,88.45c9,0,20.88-7.65,29.77-20.14,11.57-16.24,13.77-34.53,4.9-40.84a12.17,12.17,0,0,0-7.22-2.15Z"/><path d="M186.1,125.14c-6.78,0-12.1-2.49-14.61-6.82-2.36-4.11-2.08-9.43.81-15S180.46,92.48,187,88.69a38.59,38.59,0,0,1,18.82-5.47c6.78,0,12.1,2.48,14.61,6.82,4.93,8.54-2,21.83-15.54,29.63A38.63,38.63,0,0,1,186.1,125.14Z"/><path d="M205.86,83.72h0c6.59,0,11.76,2.39,14.17,6.57,2.28,3.95,2,9.1-.81,14.51-2.89,5.56-8.05,10.69-14.55,14.44a38.15,38.15,0,0,1-18.57,5.4c-6.59,0-11.76-2.4-14.17-6.57-4.8-8.31,2.09-21.29,15.36-28.95a38,38,0,0,1,18.57-5.4m0-1a39,39,0,0,0-19.07,5.53c-13.77,8-20.81,21.52-15.73,30.32,2.71,4.68,8.31,7.07,15,7.07a39,39,0,0,0,19.07-5.54c13.77-7.94,20.81-21.51,15.73-30.31-2.71-4.69-8.31-7.07-15-7.07Z"/></g></g></svg>